<svg width="40" height="28" viewBox="0 0 40 28" fill="none" xmlns="http://www.w3.org/2000/svg">
<path d="M21.1953 3.13281C18.5911 4.4349 16.1497 5.9974 13.8711 7.82031C11.5924 9.64323 9.9974 11.401 9.08594 13.0938C11.1693 13.5495 12.6667 14.4609 13.5781 15.8281C14.4896 17.1302 14.9453 18.5299 14.9453 20.0273C14.9453 22.0456 14.2292 23.7383 12.7969 25.1055C11.3646 26.4076 9.70443 27.0586 7.81641 27.0586C5.79818 27.0586 4.10547 26.3424 2.73828 24.9102C1.4362 23.4779 0.785156 21.8177 0.785156 19.9297C0.785156 17.9115 1.30599 15.8932 2.34766 13.875C3.45443 11.8568 4.88672 9.96875 6.64453 8.21094C8.40234 6.45312 10.388 4.89062 12.6016 3.52344C14.8151 2.09115 17.0612 0.919271 19.3398 0.0078125L21.1953 3.13281ZM39.2617 3.13281C36.6576 4.4349 34.2161 5.9974 31.9375 7.82031C29.6589 9.64323 28.0638 11.401 27.1523 13.0938C29.2357 13.5495 30.7331 14.4609 31.6445 15.8281C32.556 17.1302 33.0117 18.5299 33.0117 20.0273C33.0117 22.0456 32.2956 23.7383 30.8633 25.1055C29.431 26.4076 27.7708 27.0586 25.8828 27.0586C23.8646 27.0586 22.1719 26.3424 20.8047 24.9102C19.5026 23.4779 18.8516 21.8177 18.8516 19.9297C18.8516 17.9115 19.3724 15.8932 20.4141 13.875C21.5208 11.8568 22.9531 9.96875 24.7109 8.21094C26.4688 6.45312 28.4544 4.89062 30.668 3.52344C32.8815 2.09115 35.1276 0.919271 37.4062 0.0078125L39.2617 3.13281Z" fill="black"/>
</svg>
